<svg xmlns="http://www.w3.org/2000/svg" viewBox="0 0 24 24" fill="currentColor">
  <!-- Solid core -->
  <circle cx="12" cy="12" r="6" opacity="1"/>
  <!-- Ring 1: dense stipple -->
  <circle cx="8" cy="8" r="0.9" opacity="0.9"/>
  <circle cx="12" cy="6.5" r="0.9" opacity="0.9"/>
  <circle cx="16" cy="8" r="0.9" opacity="0.9"/>
  <circle cx="6.5" cy="12" r="0.9" opacity="0.9"/>
  <circle cx="17.5" cy="12" r="0.9" opacity="0.9"/>
  <circle cx="8" cy="16" r="0.9" opacity="0.9"/>
  <circle cx="12" cy="17.5" r="0.9" opacity="0.9"/>
  <circle cx="16" cy="16" r="0.9" opacity="0.9"/>
  <circle cx="10" cy="6.8" r="0.8" opacity="0.85"/>
  <circle cx="14" cy="6.8" r="0.8" opacity="0.85"/>
  <circle cx="6.8" cy="10" r="0.8" opacity="0.85"/>
  <circle cx="17.2" cy="10" r="0.8" opacity="0.85"/>
  <circle cx="6.8" cy="14" r="0.8" opacity="0.85"/>
  <circle cx="17.2" cy="14" r="0.8" opacity="0.85"/>
  <circle cx="10" cy="17.2" r="0.8" opacity="0.85"/>
  <circle cx="14" cy="17.2" r="0.8" opacity="0.85"/>
  <!-- Ring 2: medium stipple -->
  <circle cx="7" cy="5.5" r="0.7" opacity="0.65"/>
  <circle cx="12" cy="4.8" r="0.7" opacity="0.65"/>
  <circle cx="17" cy="5.5" r="0.7" opacity="0.65"/>
  <circle cx="4.8" cy="12" r="0.7" opacity="0.65"/>
  <circle cx="19.2" cy="12" r="0.7" opacity="0.65"/>
  <circle cx="7" cy="18.5" r="0.7" opacity="0.65"/>
  <circle cx="12" cy="19.2" r="0.7" opacity="0.65"/>
  <circle cx="17" cy="18.5" r="0.7" opacity="0.65"/>
  <circle cx="5.5" cy="7" r="0.65" opacity="0.6"/>
  <circle cx="18.5" cy="7" r="0.65" opacity="0.6"/>
  <circle cx="5.5" cy="17" r="0.65" opacity="0.6"/>
  <circle cx="18.5" cy="17" r="0.65" opacity="0.6"/>
  <circle cx="9.5" cy="5" r="0.6" opacity="0.6"/>
  <circle cx="14.5" cy="5" r="0.6" opacity="0.6"/>
  <circle cx="5" cy="9.5" r="0.6" opacity="0.6"/>
  <circle cx="19" cy="9.5" r="0.6" opacity="0.6"/>
  <circle cx="5" cy="14.5" r="0.6" opacity="0.6"/>
  <circle cx="19" cy="14.5" r="0.6" opacity="0.6"/>
  <circle cx="9.5" cy="19" r="0.6" opacity="0.6"/>
  <circle cx="14.5" cy="19" r="0.6" opacity="0.6"/>
  <!-- Ring 3: sparse stipple -->
  <circle cx="5.5" cy="4.5" r="0.5" opacity="0.35"/>
  <circle cx="9.5" cy="3.2" r="0.5" opacity="0.35"/>
  <circle cx="14.5" cy="3.2" r="0.5" opacity="0.35"/>
  <circle cx="18.5" cy="4.5" r="0.5" opacity="0.35"/>
  <circle cx="3.2" cy="9.5" r="0.5" opacity="0.35"/>
  <circle cx="20.8" cy="9.5" r="0.5" opacity="0.35"/>
  <circle cx="3.2" cy="14.5" r="0.5" opacity="0.35"/>
  <circle cx="20.8" cy="14.5" r="0.5" opacity="0.35"/>
  <circle cx="5.5" cy="19.5" r="0.5" opacity="0.35"/>
  <circle cx="9.5" cy="20.8" r="0.5" opacity="0.35"/>
  <circle cx="14.5" cy="20.8" r="0.5" opacity="0.35"/>
  <circle cx="18.5" cy="19.5" r="0.5" opacity="0.35"/>
  <circle cx="12" cy="2.8" r="0.45" opacity="0.3"/>
  <circle cx="2.8" cy="12" r="0.45" opacity="0.3"/>
  <circle cx="21.2" cy="12" r="0.45" opacity="0.3"/>
  <circle cx="12" cy="21.2" r="0.45" opacity="0.3"/>
  <!-- Ring 4: faintest dots at edge -->
  <circle cx="7.5" cy="3" r="0.35" opacity="0.18"/>
  <circle cx="16.5" cy="3" r="0.35" opacity="0.18"/>
  <circle cx="3" cy="7.5" r="0.35" opacity="0.18"/>
  <circle cx="21" cy="7.5" r="0.35" opacity="0.18"/>
  <circle cx="3" cy="16.5" r="0.35" opacity="0.18"/>
  <circle cx="21" cy="16.5" r="0.35" opacity="0.18"/>
  <circle cx="7.5" cy="21" r="0.35" opacity="0.18"/>
  <circle cx="16.5" cy="21" r="0.35" opacity="0.18"/>
</svg>
